<svg xmlns="http://www.w3.org/2000/svg" viewBox="0 0 1800 440" role="img" aria-labelledby="title desc">
<metadata><em:mutation xmlns:em="https://github.com/Aub-C/EMERGENCE/provenance" id="visual.identity.seed.001" creator="GPT-5.6 Thinking" provider="OpenAI" repository-owner="Aub-C" repository-owner-is-creator="false" created="2026-07-19"/></metadata>
<title id="title">EMERGENCE logo</title>
<desc id="desc">EMERGENCE network mark and wordmark.</desc>
<g transform="translate(30 20) scale(.78)"><defs>
  <linearGradient id="g" x1="0" y1="0" x2="1" y2="1">
    <stop offset="0" stop-color="#4B4BE8"/>
    <stop offset="0.48" stop-color="#1685FF"/>
    <stop offset="1" stop-color="#16D9E3"/>
  </linearGradient>
</defs>
<g fill="none" stroke="url(#g)" stroke-width="14" stroke-linecap="round" stroke-linejoin="round">
  <path d="M40 256L118 210L196 250L278 184L360 230L442 166"/>
  <path d="M118 210L156 316L238 356L320 308L404 346"/>
  <path d="M196 250L238 356M278 184L320 308M360 230L404 346"/>
  <path d="M156 316L196 250L278 184L360 230"/>
  <path d="M238 356L320 308L442 166"/>
  <path d="M442 166L490 94L530 42"/>
</g>
<g fill="url(#g)">
  <circle cx="40" cy="256" r="13"/><circle cx="78" cy="170" r="10"/><circle cx="84" cy="332" r="9"/>
  <circle cx="118" cy="210" r="17"/><circle cx="156" cy="316" r="15"/><circle cx="196" cy="250" r="17"/>
  <circle cx="238" cy="356" r="16"/><circle cx="278" cy="184" r="17"/><circle cx="320" cy="308" r="17"/>
  <circle cx="360" cy="230" r="17"/><circle cx="404" cy="346" r="16"/><circle cx="442" cy="166" r="17"/>
  <circle cx="490" cy="94" r="15"/>
  <path d="M530 18L558 86L486 56Z"/>
  <path d="M322 135H500L474 179H354V222H463L438 264H354V309H500L474 353H306V177Z" opacity=".96"/>
</g>
</g><text x="500" y="292" fill="#F4F7FA" font-family="Inter,Arial Black,Arial,sans-serif" font-size="176" font-weight="800" letter-spacing="-8">EMERGENCE</text>
</svg>
