<svg xmlns="http://www.w3.org/2000/svg" width="1400" height="700" viewBox="0 0 1400 700" role="img" aria-labelledby="title desc">
<metadata id="emergence-provenance"><em:mutation xmlns:em="https://github.com/Aub-C/EMERGENCE/provenance" id="visual.identity.seed.001" creator="GPT-5.6 Thinking" provider="OpenAI" repository-owner="Aub-C" repository-owner-is-creator="false" created="2026-07-19" /></metadata>
<title id="title">EMERGENCE federated cell architecture</title>
<desc id="desc">Independent capability cells connect through declared interfaces while agents load only the target cell and its dependency neighborhood.</desc>
<rect width="1400" height="700" rx="28" fill="#07090D"/>
<text x="70" y="70" fill="#F4F7FA" font-family="Inter,system-ui" font-size="28" font-weight="800">FEDERATED CELLS</text>
<text x="70" y="102" fill="#98A2B3" font-family="Inter,system-ui" font-size="16">Small self-describing capabilities. Bounded context. Explicit contracts.</text>
<g stroke="#1685FF" stroke-opacity=".42" stroke-width="3" fill="none">
<path d="M350 280 C500 180 570 190 700 270"/><path d="M350 420 C500 520 570 510 700 430"/><path d="M700 270 C860 170 930 190 1060 280"/><path d="M700 430 C860 530 930 510 1060 420"/><path d="M350 280 C300 350 300 350 350 420"/><path d="M1060 280 C1110 350 1110 350 1060 420"/>
</g>
<g font-family="Inter,system-ui" text-anchor="middle">
  <g><rect x="180" y="215" width="340" height="135" rx="22" fill="#111720" stroke="#4B4BE8"/><text x="350" y="263" fill="#F4F7FA" font-size="22" font-weight="800">CELL: IDENTITY</text><text x="350" y="293" fill="#98A2B3" font-size="15">purpose • interfaces • tests • security</text><text x="350" y="322" fill="#16D9E3" font-size="13">CELL.json</text></g>
  <g><rect x="180" y="365" width="340" height="135" rx="22" fill="#111720" stroke="#1685FF"/><text x="350" y="413" fill="#F4F7FA" font-size="22" font-weight="800">CELL: EXPERIENCE</text><text x="350" y="443" fill="#98A2B3" font-size="15">owned paths • capabilities • extension points</text><text x="350" y="472" fill="#16D9E3" font-size="13">CELL.json</text></g>
  <g><rect x="530" y="265" width="340" height="170" rx="24" fill="#111720" stroke="#16D9E3" stroke-width="2"/><text x="700" y="317" fill="#F4F7FA" font-size="24" font-weight="900">ORIENTATION PACKET</text><text x="700" y="350" fill="#98A2B3" font-size="15">target cell + neighbors + contracts</text><text x="700" y="381" fill="#7DFFB3" font-size="14">read only what matters</text><text x="700" y="407" fill="#16D9E3" font-size="13">npm run orient</text></g>
  <g><rect x="880" y="215" width="340" height="135" rx="22" fill="#111720" stroke="#00C7B7"/><text x="1050" y="263" fill="#F4F7FA" font-size="22" font-weight="800">CELL: OBSERVABILITY</text><text x="1050" y="293" fill="#98A2B3" font-size="15">health • metrics • rollback signals</text><text x="1050" y="322" fill="#16D9E3" font-size="13">CELL.json</text></g>
  <g><rect x="880" y="365" width="340" height="135" rx="22" fill="#111720" stroke="#FFB454"/><text x="1050" y="413" fill="#F4F7FA" font-size="22" font-weight="800">CELL: UNKNOWN</text><text x="1050" y="443" fill="#98A2B3" font-size="15">whatever the agents invent next</text><text x="1050" y="472" fill="#16D9E3" font-size="13">CELL.json</text></g>
</g>
<text x="700" y="605" text-anchor="middle" fill="#98A2B3" font-family="Inter,system-ui" font-size="15">Every path resolves to exactly one cell. Overlap fails validation instead of forcing agents to guess.</text>
</svg>