<svg xmlns="http://www.w3.org/2000/svg" viewBox="0 0 1600 900">
<metadata id="emergence-provenance"><em:mutation xmlns:em="https://github.com/Aub-C/EMERGENCE/provenance" id="visual.identity.seed.001" creator="GPT-5.6 Thinking" provider="OpenAI" repository-owner="Aub-C" repository-owner-is-creator="false" created="2026-07-19" /></metadata>
  <g fill="none" stroke="#1685FF" stroke-opacity=".28" stroke-width="2">
    <line x1="1069" y1="424" x2="1079" y2="368"/><line x1="1069" y1="424" x2="1036" y2="344"/><line x1="621" y1="374" x2="629" y2="356"/><line x1="621" y1="374" x2="633" y2="419"/><line x1="593" y1="178" x2="564" y2="197"/><line x1="593" y1="178" x2="653" y2="174"/><line x1="1568" y1="722" x2="1532" y2="732"/><line x1="1568" y1="722" x2="1530" y2="618"/><line x1="1442" y1="553" x2="1445" y2="545"/><line x1="1442" y1="553" x2="1530" y2="618"/><line x1="1354" y1="284" x2="1404" y2="215"/><line x1="1354" y1="284" x2="1525" y2="279"/><line x1="225" y1="27" x2="19" y2="51"/><line x1="225" y1="27" x2="402" y2="154"/><line x1="509" y1="393" x2="558" y2="343"/><line x1="1528" y1="429" x2="1513" y2="363"/><line x1="1528" y1="429" x2="1542" y2="356"/><line x1="516" y1="880" x2="512" y2="674"/><line x1="516" y1="880" x2="286" y2="832"/><line x1="1027" y1="821" x2="1144" y2="821"/><line x1="1027" y1="821" x2="1075" y2="702"/><line x1="650" y1="655" x2="677" y2="552"/><line x1="650" y1="655" x2="762" y2="585"/><line x1="1401" y1="741" x2="1397" y2="831"/><line x1="1401" y1="741" x2="1532" y2="732"/><line x1="822" y1="140" x2="830" y2="244"/><line x1="822" y1="140" x2="680" y2="96"/><line x1="1128" y1="63" x2="1133" y2="132"/><line x1="1128" y1="63" x2="1228" y2="145"/><line x1="286" y1="832" x2="252" y2="732"/><line x1="286" y1="832" x2="131" y2="805"/><line x1="402" y1="154" x2="437" y2="254"/><line x1="402" y1="154" x2="528" y2="76"/><line x1="1445" y1="545" x2="1530" y2="618"/><line x1="1144" y1="821" x2="1075" y2="702"/><line x1="1404" y1="215" x2="1525" y2="279"/><line x1="677" y1="552" x2="762" y2="585"/><line x1="677" y1="552" x2="767" y2="593"/><line x1="252" y1="732" x2="131" y2="805"/><line x1="1308" y1="70" x2="1228" y2="145"/><line x1="633" y1="419" x2="629" y2="356"/><line x1="167" y1="519" x2="103" y2="488"/><line x1="167" y1="519" x2="239" y2="570"/><line x1="970" y1="655" x2="970" y2="648"/><line x1="970" y1="655" x2="1075" y2="702"/><line x1="1228" y1="145" x2="1133" y2="132"/><line x1="1397" y1="831" x2="1532" y2="732"/><line x1="1036" y1="344" x2="1079" y2="368"/><line x1="36" y1="443" x2="39" y2="478"/><line x1="36" y1="443" x2="103" y2="488"/><line x1="762" y1="585" x2="767" y2="593"/><line x1="105" y1="770" x2="110" y2="746"/><line x1="105" y1="770" x2="131" y2="805"/><line x1="1513" y1="363" x2="1542" y2="356"/><line x1="103" y1="488" x2="39" y2="478"/><line x1="1585" y1="5" x2="1525" y2="279"/><line x1="830" y1="244" x2="653" y2="174"/><line x1="437" y1="254" x2="406" y2="317"/><line x1="131" y1="805" x2="110" y2="746"/><line x1="564" y1="197" x2="653" y2="174"/><line x1="1137" y1="545" x2="1177" y2="592"/><line x1="1137" y1="545" x2="1271" y2="577"/><line x1="653" y1="174" x2="680" y2="96"/><line x1="1177" y1="592" x2="1271" y2="577"/><line x1="970" y1="648" x2="1075" y2="702"/>
  </g>
  <g opacity=".58">
    <circle cx="1069" cy="424" r="3" fill="#16D9E3"/><circle cx="621" cy="374" r="4" fill="#1685FF"/><circle cx="593" cy="178" r="5" fill="#1685FF"/><circle cx="1568" cy="722" r="6" fill="#16D9E3"/><circle cx="1442" cy="553" r="3" fill="#16D9E3"/><circle cx="1354" cy="284" r="4" fill="#16D9E3"/><circle cx="225" cy="27" r="5" fill="#4B4BE8"/><circle cx="509" cy="393" r="6" fill="#1685FF"/><circle cx="1528" cy="429" r="3" fill="#16D9E3"/><circle cx="516" cy="880" r="4" fill="#1685FF"/><circle cx="1027" cy="821" r="5" fill="#16D9E3"/><circle cx="650" cy="655" r="6" fill="#1685FF"/><circle cx="1401" cy="741" r="3" fill="#16D9E3"/><circle cx="822" cy="140" r="4" fill="#1685FF"/><circle cx="1128" cy="63" r="5" fill="#16D9E3"/><circle cx="286" cy="832" r="6" fill="#4B4BE8"/><circle cx="402" cy="154" r="3" fill="#1685FF"/><circle cx="1445" cy="545" r="4" fill="#16D9E3"/><circle cx="1144" cy="821" r="5" fill="#16D9E3"/><circle cx="1404" cy="215" r="6" fill="#16D9E3"/><circle cx="677" cy="552" r="3" fill="#1685FF"/><circle cx="252" cy="732" r="4" fill="#4B4BE8"/><circle cx="1308" cy="70" r="5" fill="#16D9E3"/><circle cx="633" cy="419" r="6" fill="#1685FF"/><circle cx="167" cy="519" r="3" fill="#4B4BE8"/><circle cx="970" cy="655" r="4" fill="#16D9E3"/><circle cx="1228" cy="145" r="5" fill="#16D9E3"/><circle cx="1397" cy="831" r="6" fill="#16D9E3"/><circle cx="836" cy="832" r="3" fill="#16D9E3"/><circle cx="1036" cy="344" r="4" fill="#16D9E3"/><circle cx="36" cy="443" r="5" fill="#4B4BE8"/><circle cx="762" cy="585" r="6" fill="#1685FF"/><circle cx="105" cy="770" r="3" fill="#4B4BE8"/><circle cx="1513" cy="363" r="4" fill="#16D9E3"/><circle cx="103" cy="488" r="5" fill="#4B4BE8"/><circle cx="767" cy="593" r="6" fill="#1685FF"/><circle cx="1585" cy="5" r="3" fill="#16D9E3"/><circle cx="830" cy="244" r="4" fill="#1685FF"/><circle cx="239" cy="570" r="5" fill="#4B4BE8"/><circle cx="437" cy="254" r="6" fill="#1685FF"/><circle cx="1079" cy="368" r="3" fill="#16D9E3"/><circle cx="119" cy="273" r="4" fill="#4B4BE8"/><circle cx="131" cy="805" r="5" fill="#4B4BE8"/><circle cx="564" cy="197" r="6" fill="#1685FF"/><circle cx="1530" cy="618" r="3" fill="#16D9E3"/><circle cx="1137" cy="545" r="4" fill="#16D9E3"/><circle cx="1133" cy="132" r="5" fill="#16D9E3"/><circle cx="512" cy="674" r="6" fill="#1685FF"/><circle cx="629" cy="356" r="3" fill="#1685FF"/><circle cx="653" cy="174" r="4" fill="#1685FF"/><circle cx="680" cy="96" r="5" fill="#1685FF"/><circle cx="1177" cy="592" r="6" fill="#16D9E3"/><circle cx="558" cy="343" r="3" fill="#1685FF"/><circle cx="19" cy="51" r="4" fill="#4B4BE8"/><circle cx="1542" cy="356" r="5" fill="#16D9E3"/><circle cx="39" cy="478" r="6" fill="#4B4BE8"/><circle cx="1525" cy="279" r="3" fill="#16D9E3"/><circle cx="970" cy="648" r="4" fill="#16D9E3"/><circle cx="110" cy="746" r="5" fill="#4B4BE8"/><circle cx="406" cy="317" r="6" fill="#1685FF"/><circle cx="528" cy="76" r="3" fill="#1685FF"/><circle cx="1532" cy="732" r="4" fill="#16D9E3"/><circle cx="993" cy="21" r="5" fill="#16D9E3"/><circle cx="1271" cy="577" r="6" fill="#16D9E3"/><circle cx="1075" cy="702" r="3" fill="#16D9E3"/>
  </g>
</svg>